<svg viewBox="0 0 130 130">
  <path class="hover-strokeDark" stroke="#159570" stroke-width="3" stroke-linecap="round" stroke-linejoin="round" fill="none" d="M113.278 13.722c4.296 4.295 4.296 11.26 0 15.556-4.296 4.296-11.26 4.296-15.556 0"></path>
  <path class="hover-fillDark" fill="#159570" d="M111.55 109.037l-34.778-.014a7.46 7.46 0 0 1-7.457-7.455l-.023-59.62a7.41 7.41 0 0 1 1.118-3.916c.02-.03.038-.064.06-.095a7.463 7.463 0 0 1 1.71-1.873l15.98-15.96c3.34-3.34 8.61-3.482 11.772-.32l17.242 17.26c.94.94 1.48 2.124 1.63 3.348a7.43 7.43 0 0 1 .172 1.575l.023 59.62a7.445 7.445 0 0 1-7.45 7.45zm-17.44-84.7a9.45 9.45 0 0 0-9.45 9.45 9.448 9.448 0 0 0 18.898-.004c0-5.218-4.23-9.448-9.447-9.447z"></path>
  <path class="hover-fillLight" fill="#74E4A2" d="M111.986 57.216c0 1.684-.578 3.23-1.54 4.464a9.473 9.473 0 0 1-1.26 1.567l-53.437 53.48a9.442 9.442 0 0 1-13.36 0L11.217 85.53c-3.688-3.692-3.688-9.678 0-13.37l53.438-53.48a9.39 9.39 0 0 1 4.51-2.508c.048-.01.094-.024.14-.034a9.48 9.48 0 0 1 3.216-.144l28.637.018c5.986 0 10.84 4.597 10.84 10.268l-.015 30.936zM99.4 28.583a6.673 6.673 0 0 0-9.445 0 6.69 6.69 0 0 0 0 9.453 6.676 6.676 0 0 0 9.446 0 6.69 6.69 0 0 0 0-9.453z"></path>
  <path stroke="#FFF" stroke-width="4" stroke-linecap="round" stroke-linejoin="round" fill="none" d="M34.103 75.93l33.28-33.28M42.95 84.308l37.98-37.98M51.8 93.156l28.577-28.58"></path>
  <path class="hover-strokeDark" stroke="#159570" stroke-width="3" stroke-linecap="round" stroke-linejoin="round" fill="none" d="M97.722 29.278c-4.296-4.295-4.296-11.26 0-15.556 4.296-4.296 11.26-4.296 15.556 0"></path>
</svg>
