<svg class="heading-icon">
  <circle fill="#B9F4BC" cx="33" cy="33" r="33"></circle>
  <path d="M15.7 45.3c-.7-2-.7-3.3-.7-8v-8.7c0-4.6 0-6 .7-8 .8-2.2 2.7-4 5-5 2-.6 3.3-.6 8-.6h8.7c4.6 0 6 0 8 .7 2.2.8 4 2.7 5 5 .6 2 .6 3.3.6 8v8.7c0 4.6 0 6-.7 8-.8 2.2-2.7 4-5 5-2 .6-3.3.6-8 .6h-8.7c-4.6 0-6 0-8-.7-2.2-.8-4-2.7-5-5z" fill="#6ED69A"></path>
  <g>
    <rect fill="rgb(185,244,188)" x="23" y="27" width="20" height="2" rx="1"></rect>
    <circle fill="#1BB978" cx="27.00000000000324" cy="28" r="4"></circle>
  </g>
  <g>
    <rect fill="rgb(27,185,120)" x="23" y="37" width="20" height="2" rx="1"></rect>
    <circle fill="#1BB978" cx="38.999999999999964" cy="38" r="4"></circle>
  </g>
</svg>
