<svg class="heading-icon">
  <circle fill="#B9F4BC" cx="33" cy="33" r="33"></circle>
  <rect fill="none" stroke="#6ED69A" stroke-width="2" x="22" y="22" width="22" height="22" rx="1"></rect>
  <path d="M22.797905602372648,34.80171359805874 C21.297651735993576,33.30145973167967 19.99746133620927,33.801586664869205 19.99746133620927,36.00190399784305 L19.99746133620927,44.00253866379073 C19.99746133620927,45.10253866379073 20.89746133620927,46.00253866379073 21.99746133620927,46.00253866379073 L29.998096002156952,46.00253866379073 C32.198413335130795,46.00253866379073 32.69847680172556,44.702284797411664 31.198286401941257,43.202094397627356 L28.998222935346487,41.002030931032586 L41.002030931032586,28.998222935346487 L43.202094397627356,31.198286401941257 C44.70234826400643,32.69854026832033 46.00253866379073,32.198413335130795 46.00253866379073,29.998096002156952 L46.00253866379073,21.99746133620927 C46.00253866379073,20.89746133620927 45.10253866379073,19.99746133620927 44.00253866379073,19.99746133620927 L36.00190399784305,19.99746133620927 C33.801586664869205,19.99746133620927 33.30152319827444,21.297715202588343 34.80171359805874,22.797905602372648 L37.00171359805874,24.997905602372647 L24.997905602372647,37.00171359805874 L22.797905602372648,34.80171359805874" stroke="#B9F4BC" stroke-width="2" fill="#1BB978"></path>
</svg>
